<svg width="110" height="93" viewBox="0 0 110 93" fill="none" xmlns="http://www.w3.org/2000/svg">
<path d="M74.0878 46.9105C73.9982 46.096 73.9516 45.222 73.9516 44.2857C73.9516 38.7595 76.0409 33.1891 80.4948 27.5335C85.1987 21.8336 90.6761 17.7064 96.9316 15.0924L99.4039 14.0594L98.2022 11.6645L95.299 5.87877L94.2153 3.71908L92.02 4.72868C80.4966 10.0282 71.7062 17.1659 65.8093 26.2055L65.7972 26.2242L65.7854 26.243C60.1444 35.2364 57.3387 45.3448 57.3387 56.5C57.3387 65.2234 59.2493 72.7814 63.207 79.0464C67.9851 86.6615 75.1464 90.5 84.3549 90.5C90.7769 90.5 96.2645 88.3407 100.636 83.9852C105.194 79.4431 107.5 73.8766 107.5 67.4286C107.5 60.6336 105.244 55.0025 100.587 50.8232C96.2235 46.5004 90.7529 44.3571 84.3549 44.3571C80.6283 44.3571 77.1926 45.2095 74.0878 46.9105ZM19.2491 46.9105C19.1594 46.096 19.1129 45.222 19.1129 44.2857C19.1129 38.7595 21.2021 33.1892 25.656 27.5336C30.3599 21.8336 35.8374 17.7064 42.0929 15.0924L44.5652 14.0594L43.3635 11.6645L40.4603 5.87876L39.3766 3.71908L37.1812 4.72868C25.6578 10.0282 16.8675 17.1659 10.9706 26.2055L10.9585 26.2242L10.9467 26.243C5.30566 35.2364 2.5 45.3448 2.5 56.5C2.5 65.223 4.41041 72.7807 8.36779 79.0455C13.1458 86.6612 20.3074 90.5 29.5161 90.5C35.9382 90.5 41.4258 88.3407 45.7969 83.9852C50.3553 79.4431 52.6613 73.8766 52.6613 67.4286C52.6613 60.6336 50.4057 55.0025 45.7478 50.8232C41.3847 46.5004 35.9142 44.3571 29.5161 44.3571C25.7896 44.3571 22.3539 45.2095 19.2491 46.9105Z" stroke="url(#paint0_linear_3306_103)" stroke-width="5"/>
<defs>
<linearGradient id="paint0_linear_3306_103" x1="4.75006" y1="60.4086" x2="125.357" y2="77.9687" gradientUnits="userSpaceOnUse">
<stop stop-color="#53F3CD"/>
<stop offset="1" stop-color="#53F3CD" stop-opacity="0"/>
</linearGradient>
</defs>
</svg>
